<svg width="44" height="44" fill="none" xmlns="http://www.w3.org/2000/svg"><path d="M42.306 18.876a2.353 2.353 0 01-1.759-.21 2.283 2.283 0 01-1.093-1.37 17.576 17.576 0 00-6.264-9.132A17.91 17.91 0 0022.387 4.55a17.91 17.91 0 00-10.803 3.614 17.626 17.626 0 00-3.085 3.005l-1.827.528-.286-5.056c3.82-3.858 8.95-6.202 14.415-6.585a22.604 22.604 0 0115.22 4.506 22.153 22.153 0 017.894 11.511 2.24 2.24 0 01-.214 1.73 2.31 2.31 0 01-1.395 1.073zM37.33 32.29l-1.826.528a17.622 17.622 0 01-3.085 3.005 17.911 17.911 0 01-10.803 3.614 17.9 17.9 0 01-10.803-3.614 17.576 17.576 0 01-6.264-9.132 2.26 2.26 0 00-.408-.792 2.305 2.305 0 00-.686-.579 2.344 2.344 0 00-3.154.865 2.248 2.248 0 00-.214 1.729 22.152 22.152 0 007.895 11.51 22.564 22.564 0 0015.221 4.52c5.467-.383 10.598-2.732 14.413-6.598l-.286-5.056zM3.742 18.867l13.123-3.792a2.318 2.318 0 001.394-1.09 2.246 2.246 0 00-.23-2.53 2.307 2.307 0 00-.698-.57 2.345 2.345 0 00-1.773-.175l-10.32 2.982L4.63 2.907a2.243 2.243 0 00-.22-.866 2.279 2.279 0 00-.541-.717A2.325 2.325 0 002.188.74a2.349 2.349 0 00-.88.224c-.276.13-.522.314-.725.539A2.266 2.266 0 00.005 3.16l.772 13.65a2.257 2.257 0 00.976 1.733 2.34 2.34 0 001.99.324zm38.07 24.358a2.332 2.332 0 001.598-.755c.41-.45.62-1.04.586-1.643l-.772-13.651a2.245 2.245 0 00-.286-.976 2.29 2.29 0 00-.69-.757 2.338 2.338 0 00-1.99-.324l-13.121 3.793a2.308 2.308 0 00-1.372 1.094 2.24 2.24 0 00-.186 1.727 2.283 2.283 0 001.108 1.353c.537.29 1.169.358 1.757.19l10.319-2.98.61 10.784c.032.58.29 1.126.72 1.526a2.337 2.337 0 001.72.619z" fill="#1FBBEA"/></svg>