<svg width="44" height="44" fill="none" xmlns="http://www.w3.org/2000/svg"><path d="M22 44C9.87 44 0 34.13 0 22S9.87 0 22 0s22 9.87 22 22-9.87 22-22 22zm0-41.25C11.385 2.75 2.75 11.385 2.75 22S11.385 41.25 22 41.25 41.25 32.615 41.25 22 32.615 2.75 22 2.75z" fill="#1FBBEA"/><path d="M22 33c-6.065 0-11-4.935-11-11s4.935-11 11-11c2.982 0 5.773 1.174 7.86 3.305l-1.966 1.922A8.182 8.182 0 0022 13.75c-4.55 0-8.25 3.7-8.25 8.25s3.7 8.25 8.25 8.25c2.236 0 4.328-.88 5.893-2.477l1.964 1.925A10.912 10.912 0 0122 33z" fill="#1FBBEA"/></svg>