<svg width="512" height="396" viewBox="0 0 512 396" fill="none" xmlns="http://www.w3.org/2000/svg">
<path d="M485.481 172.536C469.368 150.348 447.012 133.294 420.83 123.216C394.647 113.138 366.628 110.802 339.796 116.459C310.907 122.55 284.753 137.814 264.159 160.601L256 169.629L247.84 160.6C227.247 137.813 201.092 122.55 172.203 116.458C145.373 110.802 117.351 113.138 91.169 123.215C64.987 133.293 42.631 150.348 26.518 172.536C9.17 196.425 0 225.287 0 256C0 286.713 9.17 315.574 26.518 339.463C42.631 361.651 64.987 378.705 91.169 388.783C117.351 398.862 145.373 401.198 172.203 395.541C201.092 389.45 227.247 374.186 247.84 351.399L255.999 342.371L264.158 351.399C284.752 374.186 310.906 389.449 339.795 395.541C349.344 397.554 359.04 398.555 368.754 398.555C386.335 398.554 403.965 395.275 420.829 388.784C447.011 378.706 469.367 361.651 485.48 339.463C502.83 315.575 512 286.713 512 255.999C512 225.285 502.83 196.425 485.481 172.536V172.536ZM410.054 360.786C375.269 374.173 324.527 373.453 286.417 331.284L188.919 214.74L188.487 214.24C176.202 200.647 160.589 193.462 143.334 193.462C129.31 193.462 114.22 198.668 102.97 207.389C92.491 215.511 80 230.538 80 256C80 281.462 92.491 296.489 102.97 304.611C114.221 313.331 129.31 318.537 143.334 318.537C160.588 318.537 176.202 311.352 188.487 297.759L203.562 279.534L236.426 319.285L225.582 331.284C187.469 373.454 136.726 374.173 101.945 360.786C67.165 347.398 30 312.84 30 255.999C30 199.159 67.165 164.601 101.946 151.213C136.726 137.824 187.47 138.543 225.583 180.715L323.08 297.26L323.512 297.76C335.797 311.353 351.41 318.538 368.665 318.538C382.689 318.538 397.779 313.332 409.029 304.612C419.508 296.49 431.999 281.463 431.999 256.001C431.999 230.539 419.508 215.512 409.029 207.39C397.779 198.669 382.689 193.463 368.665 193.463C351.41 193.463 335.797 200.648 323.512 214.241L308.464 232.433L275.664 192.615L286.418 180.716C324.528 138.547 375.272 137.826 410.055 151.214C444.835 164.602 482 199.16 482 256C482 312.84 444.835 347.398 410.054 360.786ZM184.106 256L166.025 277.871C159.451 285.048 152.026 288.538 143.335 288.538C134.063 288.538 110 282.693 110 256.001C110 229.309 134.063 223.463 143.334 223.463C152.025 223.463 159.45 226.953 166.024 234.129L184.106 256ZM327.893 256L345.975 234.128C352.549 226.951 359.973 223.462 368.664 223.462C377.935 223.462 401.998 229.308 401.998 256C401.998 282.692 377.935 288.537 368.664 288.537C359.973 288.537 352.549 285.048 345.975 277.871L327.893 256Z" fill="#1FBBEA"/>
</svg>
