<svg width="170" height="144" fill="none" xmlns="http://www.w3.org/2000/svg"><path d="M0 144v-16h2v16H0zm8.399-11.255V144H6v-16h1.885l8.696 11.538v-11.516H19V144h-1.99L8.4 132.745zM22 144v-16h11v2.23h-8.394v4.776h7.031v2.098h-7.03V144H22zm13 0v-16h2v16h-2zm7.581-11.255V144H40v-16h2.03l9.367 11.538v-11.516H54V144h-2.143l-9.276-11.255zM58 144v-16h2v16h-2zm18-13.77h-5.236V144h-2.507v-13.77H63V128h12.99l.01 2.23zm12 11.538V144H78v-16h9.814v2.23H80.3v4.553h6.507v2.095H80.3v4.89H88zM100.987 128h2.077L109 144h-2.49l-1.59-4.351H99.1L97.533 144H95l5.987-16zm3.454 9.78l-2.416-6.875-2.5 6.875h4.916zM110 144v-16h2.725v13.768H122V144h-12zm25.998-4.114a3.624 3.624 0 01-.409 1.736 3.941 3.941 0 01-1.094 1.299 5.039 5.039 0 01-1.62.809 6.753 6.753 0 01-1.979.269H123V128h8.525a3.383 3.383 0 011.561.361c.456.233.859.551 1.186.936.331.388.587.831.757 1.307a4.173 4.173 0 01-.339 3.676 3.732 3.732 0 01-1.759 1.523c.897.24 1.688.76 2.248 1.48.562.757.85 1.672.819 2.603zm-10.39-9.703v4.723h4.798c.31.002.616-.06.899-.181.268-.119.512-.284.721-.485.213-.21.38-.459.49-.733a2.47 2.47 0 00.172-.949 2.434 2.434 0 00-.604-1.695 1.936 1.936 0 00-.69-.501 2.01 2.01 0 00-.846-.162l-4.94-.017zm7.709 9.224a2.64 2.64 0 00-.172-.946 2.693 2.693 0 00-.468-.79 2.172 2.172 0 00-.709-.539 2.046 2.046 0 00-.908-.202h-5.452v4.894h5.288a2.412 2.412 0 002.421-2.412v-.005zm10.675 2.33a4.145 4.145 0 002.123-.492 3.955 3.955 0 001.364-1.286c.354-.555.602-1.17.732-1.812.145-.688.217-1.389.215-2.091V128H151v8.056a11.786 11.786 0 01-.388 3.075 7.085 7.085 0 01-1.233 2.529 5.866 5.866 0 01-2.183 1.711 7.54 7.54 0 01-3.21.626 7.338 7.338 0 01-3.275-.661 5.842 5.842 0 01-2.158-1.767 7.135 7.135 0 01-1.187-2.537 12.002 12.002 0 01-.366-2.976V128h2.557v8.056c-.002.709.072 1.417.218 2.112.13.643.378 1.257.732 1.813.34.529.809.967 1.364 1.275a4.251 4.251 0 002.121.481zM167.473 144v-11.525l-4.762 8.722h-1.4l-4.784-8.722V144H154v-16h2.697l5.304 9.78 5.302-9.78H170v16h-2.527z" fill="#1FBBEA"/><path d="M118.312 0A51.454 51.454 0 0085 12.258 51.456 51.456 0 0051.686 0C23.186 0 0 23.33 0 52.003 0 80.675 23.186 104 51.686 104a51.251 51.251 0 0033.296-12.274A51.452 51.452 0 00118.312 104C146.812 104 170 80.67 170 51.995 170 23.32 146.812 0 118.312 0zM1.963 52.003c0-27.58 22.301-50.017 49.712-50.017A49.487 49.487 0 0183.48 13.575a52.53 52.53 0 00-4.6 4.801 42.904 42.904 0 00-27.204-9.745C27.911 8.631 8.58 28.082 8.58 51.992c0 23.91 19.332 43.364 43.096 43.364a42.883 42.883 0 0021.895-5.998 43.219 43.219 0 0015.828-16.361 17.91 17.91 0 002.204-8.636V52.003a26.968 26.968 0 015.93-16.857 26.678 26.678 0 0115.131-9.378 26.556 26.556 0 0117.63 2.254 26.794 26.794 0 0112.319 12.888 27.023 27.023 0 011.551 17.812 26.873 26.873 0 01-9.905 14.847 26.59 26.59 0 01-16.972 5.303 26.613 26.613 0 01-16.522-6.589l-1.1-.966a51.942 51.942 0 003.229-12.321 16.946 16.946 0 008.6 8.567 16.803 16.803 0 0012.089.583 16.92 16.92 0 009.376-7.7 17.093 17.093 0 001.853-12.033 17.009 17.009 0 00-6.62-10.194 16.82 16.82 0 00-22.471 2.421 17.062 17.062 0 00-4.325 11.373c0 27.582-22.298 50.017-49.712 50.017-27.413 0-49.72-22.446-49.72-50.027zM70.55 32.112l-.94-.827a27.231 27.231 0 00-13.997-6.469 27.156 27.156 0 00-15.249 2.181 27.355 27.355 0 00-11.65 10.138 27.597 27.597 0 00-4.344 14.868 27.596 27.596 0 004.344 14.868 27.356 27.356 0 0011.65 10.137 27.157 27.157 0 0015.25 2.181 27.232 27.232 0 0014.695-7.106 17.686 17.686 0 004.07-5.882 17.778 17.778 0 001.414-7.024v-7.174c0-5.618 1.1-11.18 3.236-16.37a42.78 42.78 0 019.218-13.876 42.486 42.486 0 0113.794-9.27 42.278 42.278 0 0116.271-3.25c23.439 0 42.507 19.185 42.507 42.766 0 23.58-19.065 42.778-42.507 42.778a42.299 42.299 0 01-26.838-9.613 51.868 51.868 0 004.264-5.987 35.044 35.044 0 0022.574 8.252c19.411 0 35.204-15.89 35.204-35.42s-15.793-35.428-35.204-35.428a35.093 35.093 0 00-24.888 10.376 35.528 35.528 0 00-10.309 25.042v10.119a17.088 17.088 0 01-3.008 9.771 34.638 34.638 0 01-12.382 10.988 34.401 34.401 0 01-16.034 3.957c-19.084 0-34.61-15.619-34.61-34.822 0-19.204 15.51-34.835 34.605-34.835a34.444 34.444 0 0122.251 8.165 52.398 52.398 0 00-3.374 6.766h-.013zm3.688-7.283a35.028 35.028 0 00-22.565-8.244c-19.411 0-35.202 15.888-35.202 35.418s15.79 35.42 35.202 35.42a35.007 35.007 0 0016.308-4.028A35.246 35.246 0 0080.576 72.22a17.672 17.672 0 003.126-10.098v-10.12A34.93 34.93 0 0193.839 27.38a34.503 34.503 0 0124.473-10.2c19.086 0 34.609 15.622 34.609 34.823a34.973 34.973 0 01-5.42 18.717 34.673 34.673 0 01-14.572 12.85 34.417 34.417 0 01-19.154 2.954 34.501 34.501 0 01-17.728-7.87 51.849 51.849 0 003.388-6.76l.942.826a27.214 27.214 0 0016.899 6.737 27.19 27.19 0 0017.357-5.428c5-3.751 8.574-9.11 10.126-15.188a27.633 27.633 0 00-1.594-18.218 27.404 27.404 0 00-12.607-13.175 27.156 27.156 0 00-18.033-2.294 27.285 27.285 0 00-15.47 9.603 27.578 27.578 0 00-6.05 17.246V64.36c.004 2.92-.73 5.792-2.13 8.349a42.628 42.628 0 01-15.6 16.143 42.29 42.29 0 01-21.59 5.928c-23.436 0-42.504-19.184-42.504-42.768 0-23.583 19.068-42.766 42.505-42.766a42.308 42.308 0 0126.822 9.588 51.725 51.725 0 00-4.257 5.994h-.013zm29.136 27.174c0-2.973.877-5.88 2.518-8.352a14.958 14.958 0 016.706-5.536 14.855 14.855 0 018.632-.855 14.91 14.91 0 017.649 4.115 15.06 15.06 0 014.088 7.697 15.12 15.12 0 01-.851 8.685 15.006 15.006 0 01-5.504 6.745 14.874 14.874 0 01-8.3 2.532 14.91 14.91 0 01-10.557-4.409 15.094 15.094 0 01-4.381-10.622zm14.938 50.016A49.485 49.485 0 0186.49 90.415a51.96 51.96 0 004.596-4.807 42.886 42.886 0 0027.226 9.758c23.767 0 43.099-19.45 43.099-43.363S142.079 8.655 118.312 8.655a42.963 42.963 0 00-30.47 12.694 43.493 43.493 0 00-12.627 30.654v7.166a17.19 17.19 0 01-1.365 6.791 17.1 17.1 0 01-4.617 6.31 26.629 26.629 0 01-13.687 6.319c-5.07.74-10.245 0-14.907-2.138A26.75 26.75 0 0129.25 66.54a26.985 26.985 0 01-4.247-14.536 26.978 26.978 0 014.247-14.536 26.75 26.75 0 0111.388-9.913 26.555 26.555 0 0114.907-2.137 26.629 26.629 0 0113.687 6.318l1.092.959a52.371 52.371 0 00-3.228 12.308 16.948 16.948 0 00-8.608-8.557 16.802 16.802 0 00-12.088-.571 16.921 16.921 0 00-9.368 7.706 17.092 17.092 0 00-1.844 12.032 17.01 17.01 0 006.624 10.189 16.822 16.822 0 0022.467-2.43A17.06 17.06 0 0068.602 52a50.279 50.279 0 013.782-19.14A50.035 50.035 0 0183.16 16.631 49.688 49.688 0 0199.287 5.79a49.444 49.444 0 0119.025-3.807c27.413 0 49.714 22.438 49.714 50.017 0 27.579-22.301 50.019-49.714 50.019zM66.623 52.003a15.09 15.09 0 01-2.518 8.35A14.96 14.96 0 0157.4 65.89a14.856 14.856 0 01-8.631.855 14.912 14.912 0 01-7.65-4.114 15.06 15.06 0 01-4.088-7.696 15.117 15.117 0 01.85-8.685 15.012 15.012 0 015.502-6.745 14.875 14.875 0 018.3-2.534 14.91 14.91 0 0110.56 4.408 15.094 15.094 0 014.38 10.624z" fill="url(#paint0_linear)"/><defs><linearGradient id="paint0_linear" x1="50.833" y1="-7.535" x2="119.793" y2="111.178" gradientUnits="userSpaceOnUse"><stop stop-color="#09528B"/><stop offset=".08" stop-color="#0B5B92"/><stop offset=".21" stop-color="#1172A3"/><stop offset=".37" stop-color="#1A98C0"/><stop offset=".53" stop-color="#25C4E2"/><stop offset="1" stop-color="#09528B"/></linearGradient></defs></svg>