<svg width="45" height="45" fill="none" xmlns="http://www.w3.org/2000/svg"><path d="M15.706 8.455c-2.628.921-4.681 2.79-5.874 5.307-1.11-1.12-1.299-2.585-.828-3.83.535-1.417 1.93-2.56 3.872-2.554a4.245 4.245 0 012.83 1.077z" stroke="#1FBBEA"/><path d="M4.429 13.606l-.113-.342-.361-.002-2.001-.006c-.293 0-.476-.218-.476-.418l.002-3.321c0-.202.183-.417.476-.416l2.004.006.363.001.113-.345a7.96 7.96 0 01.633-1.43l.191-.34-.285-.268L3.56 5.388s0 0 0 0a.392.392 0 01-.128-.285c0-.1.042-.203.128-.285 0 0 0 0 0 0l2.5-2.34h.001a.504.504 0 01.347-.131c.132 0 .256.048.348.134L8.173 3.82l.253.239.311-.154a9.051 9.051 0 011.536-.594l.362-.103V2.83l.001-1.884c0-.2.185-.415.477-.414l3.535.01c.292.002.474.217.474.418l-.001 1.884v.378l.362.104a8.996 8.996 0 011.534.604l.311.155.254-.237 1.423-1.329.002-.001a.497.497 0 01.345-.131c.131 0 .255.048.347.134h0l2.497 2.355.002.002c.085.08.127.182.127.282 0 .1-.042.202-.128.282l-.002.002-1.419 1.33-.285.267.192.342c.09.16.174.326.252.496a11.774 11.774 0 00-2.444-.015c-1.186-1.766-3.25-2.95-5.614-2.957-3.653-.011-6.68 2.779-6.682 6.285 0 2.116 1.11 3.973 2.782 5.117a13.44 13.44 0 00-.288 2.168l-.273-.137-.253.238-1.414 1.326-.001.001a.518.518 0 01-.35.132.513.513 0 01-.349-.133l-2.497-2.356a.38.38 0 010-.568h0l1.418-1.33.286-.267-.192-.342a8.228 8.228 0 01-.635-1.436zm32.248 13.888c-.001 1.472-.825 2.77-2.087 3.529a16.03 16.03 0 00-6.45-3.08 17.153 17.153 0 001.768-4.142 4.713 4.713 0 012.23-.556c2.533.008 4.54 1.943 4.539 4.25z" stroke="#1FBBEA"/><path d="M44.473 25.715h0V29.3s0 0 0 0 0 0 0 0c0 .12-.05.24-.151.334h0l-.004.003a.581.581 0 01-.4.151l-2.163-.006-.363-.001-.113.344a8.53 8.53 0 01-.689 1.55l-.193.342.286.27 1.533 1.444s0 0 0 0a.462.462 0 01.149.337c0 .122-.05.242-.149.334l-2.698 2.526a.584.584 0 01-.386.153 14.54 14.54 0 00-2.668-4.295c1.676-1.215 2.776-3.124 2.778-5.294.002-3.73-3.216-6.72-7.107-6.733a7.067 7.067 0 00-1.67.2c.063-.585.097-1.17.098-1.75 0-1.167-.141-2.272-.405-3.305a.506.506 0 01.073-.005l3.815.011c.334.002.55.25.55.492v2.41l.362.105c.58.167 1.135.389 1.663.654l.311.156.254-.237 1.536-1.435v-.002a.58.58 0 01.401-.152c.152 0 .297.055.402.155h0l2.696 2.544h0a.46.46 0 01.151.336c0 .12-.05.24-.15.334h-.002l-1.532 1.435-.286.268.192.342c.28.496.513 1.016.688 1.555l.113.346h.362l2.164.008c.334 0 .553.25.552.491z" stroke="#1FBBEA"/><path d="M36.613 38.449c-1.632-4.514-5.95-7.628-10.935-8.065-1.67 1.652-3.738 2.697-6.079 2.69-2.34-.008-4.407-1.065-6.074-2.728-4.99.407-9.31 3.494-10.948 7.998l-.905 2.49a2.232 2.232 0 00.336 2.124 2.57 2.57 0 002.036.988l31.097.096c.809.003 1.567-.36 2.038-.974a2.23 2.23 0 00.337-2.123l-.903-2.496z" fill="#1FBBEA"/><path d="M19.613 29.827c-1.768-.006-3.529-1.212-4.902-3.28-1.359-2.047-2.207-4.765-2.205-7.37.001-2.667.923-4.577 2.23-5.821 1.32-1.256 3.093-1.893 4.888-1.887 1.795.007 3.568.658 4.887 1.924 1.305 1.253 2.225 3.168 2.223 5.828-.001 2.606-.852 5.318-2.213 7.356-1.376 2.06-3.138 3.255-4.908 3.25z" stroke="#1FBBEA" stroke-width="2"/></svg>