<svg width="46" height="46" fill="none" xmlns="http://www.w3.org/2000/svg"><path d="M33.685 45H1.647A.647.647 0 011 44.353v-10.39a.647.647 0 011.06-.499 5.88 5.88 0 009.568-5.317 5.875 5.875 0 00-5.826-5.092 5.818 5.818 0 00-3.739 1.337A.647.647 0 011 23.897V12.328a.647.647 0 01.647-.647h10.356a7.06 7.06 0 01-.917-3.506A7.173 7.173 0 0118.263 1a7.18 7.18 0 017.178 7.175 7.074 7.074 0 01-.922 3.506h9.166a.647.647 0 01.647.647v9.16A7.17 7.17 0 0145 27.74a7.163 7.163 0 01-3.542 6.181 7.17 7.17 0 01-7.126.073v10.358a.647.647 0 01-.647.647zm-31.39-1.294h30.742V32.772a.646.646 0 011.06-.498 5.885 5.885 0 009.639-4.526 5.88 5.88 0 00-6.622-5.836 5.883 5.883 0 00-3.013 1.304.647.647 0 01-1.064-.497v-9.744H23.29a.647.647 0 01-.5-1.056 5.878 5.878 0 00-5.316-9.578 5.883 5.883 0 00-5.096 5.834 5.79 5.79 0 001.352 3.74.647.647 0 01-.498 1.06H2.294v9.693a7.176 7.176 0 0110.675 6.259 7.169 7.169 0 01-7.1 7.17 7.176 7.176 0 01-3.575-.91v8.52z" fill="#1FBBEA" stroke="#1FBBEA"/></svg>