<svg width="44" height="44" fill="none" xmlns="http://www.w3.org/2000/svg"><path d="M41.13 17.217h-3.58a16.2 16.2 0 00-1.172-2.829l2.53-2.53a2.85 2.85 0 00.84-2.03c0-.768-.298-1.489-.84-2.03L36.202 5.09c-1.082-1.082-2.976-1.085-4.06 0l-2.53 2.53a16.23 16.23 0 00-2.83-1.171V2.87A2.873 2.873 0 0023.914 0h-3.826a2.873 2.873 0 00-2.87 2.87v3.58c-.98.302-1.927.694-2.829 1.172l-2.531-2.53a2.874 2.874 0 00-4.06 0L5.09 7.799a2.876 2.876 0 000 4.059l2.53 2.531a16.23 16.23 0 00-1.171 2.83h-3.58A2.873 2.873 0 000 20.087v3.826a2.873 2.873 0 002.87 2.869h3.58c.302.98.694 1.927 1.172 2.829l-2.53 2.531a2.874 2.874 0 000 4.06l2.707 2.707a2.876 2.876 0 004.059 0l2.531-2.53c.901.478 1.849.87 2.83 1.171v3.58A2.873 2.873 0 0020.087 44h3.826a2.873 2.873 0 002.87-2.87v-3.58c.98-.302 1.928-.694 2.829-1.172l2.53 2.531c1.085 1.084 2.979 1.082 4.06 0l2.706-2.707c.542-.541.84-1.262.84-2.03a2.85 2.85 0 00-.84-2.029l-2.53-2.531c.478-.901.87-1.849 1.171-2.83h3.58A2.873 2.873 0 0044 23.914v-3.826a2.873 2.873 0 00-2.87-2.87zm.957 6.696a.958.958 0 01-.957.957h-4.304a.957.957 0 00-.926.717 14.377 14.377 0 01-1.534 3.704.958.958 0 00.147 1.162l3.042 3.043c.18.18.28.42.28.677a.95.95 0 01-.28.677l-2.707 2.707a.985.985 0 01-1.354 0l-3.042-3.042a.958.958 0 00-1.163-.147 14.322 14.322 0 01-3.703 1.533.955.955 0 00-.716.925v4.304a.958.958 0 01-.957.957h-3.826a.958.958 0 01-.957-.957v-4.304a.957.957 0 00-.717-.926 14.342 14.342 0 01-3.704-1.533.956.956 0 00-1.163.147l-3.042 3.042a.96.96 0 01-1.354 0l-2.707-2.707a.958.958 0 010-1.354l3.042-3.042a.955.955 0 00.147-1.162A14.36 14.36 0 018.1 25.587a.955.955 0 00-.925-.717H2.87a.958.958 0 01-.957-.957v-3.826c0-.527.43-.957.957-.957h4.304a.957.957 0 00.926-.717 14.341 14.341 0 011.533-3.704.955.955 0 00-.147-1.162l-3.042-3.042a.96.96 0 010-1.354l2.707-2.707a.959.959 0 011.354 0l3.042 3.042a.954.954 0 001.162.147A14.36 14.36 0 0118.413 8.1a.957.957 0 00.717-.926V2.87c0-.527.43-.957.957-.957h3.826c.528 0 .957.43.957.957v4.304c0 .436.295.817.717.926 1.307.337 2.553.854 3.703 1.533a.955.955 0 001.163-.147l3.042-3.042a.982.982 0 011.354 0l2.707 2.707c.18.18.28.42.28.677 0 .257-.1.498-.28.678l-3.042 3.041a.957.957 0 00-.147 1.162 14.362 14.362 0 011.534 3.704.955.955 0 00.925.717h4.304c.528 0 .957.43.957.957v3.826z" fill="#1FBBEA"/><path d="M22 13.391c-4.746 0-8.608 3.863-8.608 8.61 0 4.745 3.862 8.608 8.608 8.608 4.747 0 8.609-3.863 8.609-8.609S26.747 13.391 22 13.391zm0 15.305A6.703 6.703 0 0115.305 22 6.703 6.703 0 0122 15.304 6.704 6.704 0 0128.696 22 6.704 6.704 0 0122 28.696z" fill="#1FBBEA"/></svg>